<?xml version="1.0" encoding="utf-8"?>
<!-- Generator: Adobe Illustrator 19.0.0, SVG Export Plug-In . SVG Version: 6.00 Build 0)  -->
<svg version="1.1" id="Calque_1" xmlns="http://www.w3.org/2000/svg" xmlns:xlink="http://www.w3.org/1999/xlink" x="0px" y="0px"
	 width="500px" height="500px" viewBox="-170 48.3 500 500" enable-background="new -170 48.3 500 500" xml:space="preserve">
<g>
	<path fill="#FFFFFF" d="M-151.7,98.3h-16c-1.1,0-2-0.9-2-2v-16c0-1.1,0.9-2,2-2h16c1.1,0,2,0.9,2,2v16
		C-149.7,97.4-150.6,98.3-151.7,98.3z"/>
	<path fill="#CCCCCC" d="M-151.7,79.3c0.6,0,1,0.4,1,1v16c0,0.6-0.4,1-1,1h-16c-0.6,0-1-0.4-1-1v-16c0-0.6,0.4-1,1-1H-151.7
		 M-151.7,78.3h-16c-1.1,0-2,0.9-2,2v16c0,1.1,0.9,2,2,2h16c1.1,0,2-0.9,2-2v-16C-149.7,79.2-150.6,78.3-151.7,78.3L-151.7,78.3z"/>
</g>
<g>
	<circle fill="#FFFFFF" cx="-159.7" cy="58.3" r="10"/>
	<path fill="#CCCCCC" d="M-159.7,49.3c5,0,9,4,9,9s-4,9-9,9s-9-4-9-9S-164.7,49.3-159.7,49.3 M-159.7,48.3c-5.5,0-10,4.5-10,10
		s4.5,10,10,10s10-4.5,10-10S-154.2,48.3-159.7,48.3L-159.7,48.3z"/>
</g>
<g>
	<path fill="#FFFFFF" d="M-122,98.3h-16c-1.1,0-2-0.9-2-2v-16c0-1.1,0.9-2,2-2h16c1.1,0,2,0.9,2,2v16C-120,97.4-120.9,98.3-122,98.3
		z"/>
	<path fill="#CCCCCC" d="M-122,79.3c0.6,0,1,0.4,1,1v16c0,0.6-0.4,1-1,1h-16c-0.6,0-1-0.4-1-1v-16c0-0.6,0.4-1,1-1H-122 M-122,78.3
		h-16c-1.1,0-2,0.9-2,2v16c0,1.1,0.9,2,2,2h16c1.1,0,2-0.9,2-2v-16C-120,79.2-120.9,78.3-122,78.3L-122,78.3z"/>
</g>
<g>
	<path fill="none" d="M-92,98.3h-16c-1.1,0-2-0.9-2-2v-16c0-1.1,0.9-2,2-2h16c1.1,0,2,0.9,2,2v16C-90,97.4-90.9,98.3-92,98.3z"/>
	<path fill="none" d="M-92,79.3c0.6,0,1,0.4,1,1v16c0,0.6-0.4,1-1,1h-16c-0.6,0-1-0.4-1-1v-16c0-0.6,0.4-1,1-1H-92 M-92,78.3h-16
		c-1.1,0-2,0.9-2,2v16c0,1.1,0.9,2,2,2h16c1.1,0,2-0.9,2-2v-16C-90,79.2-90.9,78.3-92,78.3L-92,78.3z"/>
</g>
<g>
	<path fill="none" d="M-62,98.3h-16c-1.1,0-2-0.9-2-2v-16c0-1.1,0.9-2,2-2h16c1.1,0,2,0.9,2,2v16C-60,97.4-60.9,98.3-62,98.3z"/>
	<path fill="none" d="M-62,79.3c0.6,0,1,0.4,1,1v16c0,0.6-0.4,1-1,1h-16c-0.6,0-1-0.4-1-1v-16c0-0.6,0.4-1,1-1H-62 M-62,78.3h-16
		c-1.1,0-2,0.9-2,2v16c0,1.1,0.9,2,2,2h16c1.1,0,2-0.9,2-2v-16C-60,79.2-60.9,78.3-62,78.3L-62,78.3z"/>
</g>
<path fill="#666666" d="M-94.5,86.3c0.4,0.3,0.4,0.8,0,1.2l-5.1,4.6c-0.4,0.3-0.9,0.3-1.3,0l-5.1-4.6c-0.4-0.3-0.4-0.8,0-1.2H-94.5z
	"/>
<g>
	<circle fill="#FFFFFF" cx="-130" cy="58.3" r="10"/>
	<path fill="#CCCCCC" d="M-130,49.3c5,0,9,4,9,9s-4,9-9,9s-9-4-9-9S-135,49.3-130,49.3 M-130,48.3c-5.5,0-10,4.5-10,10s4.5,10,10,10
		s10-4.5,10-10S-124.5,48.3-130,48.3L-130,48.3z"/>
</g>
<circle fill="#666666" cx="-130" cy="58.3" r="4.3"/>
<path fill="#666666" d="M-122.6,83.7c-0.5-0.5-1.4-0.5-2,0l-6.7,6.7l-3.8-3.8c-0.5-0.5-1.4-0.5-2,0c-0.3,0.3-0.4,0.6-0.4,1
	c0,0.4,0.1,0.7,0.4,1l5.7,5.7l8.7-8.7c0.3-0.3,0.4-0.6,0.4-1C-122.3,84.2-122.3,84-122.6,83.7z"/>
<g>
	<g>
		<rect x="-114.7" y="113.3" fill="#E6E6E6" width="180" height="180"/>
		<g>
			<rect x="-111" y="117" fill="#FFFFFF" width="14.4" height="172.6"/>
			<rect x="-93.4" y="117" fill="#FFFFFF" width="14.4" height="172.6"/>
			<rect x="-75.8" y="117" fill="#FFFFFF" width="14.4" height="172.6"/>
			<rect x="-58.3" y="117" fill="#FFFFFF" width="14.4" height="172.6"/>
			<rect x="-40.7" y="117" fill="#FFFFFF" width="14.4" height="172.6"/>
			<rect x="-23.1" y="117" fill="#FFFFFF" width="14.4" height="172.6"/>
			<rect x="-5.5" y="117" fill="#FFFFFF" width="14.4" height="172.6"/>
			<rect x="12.1" y="117" fill="#FFFFFF" width="14.4" height="172.6"/>
			<rect x="29.6" y="117" fill="#FFFFFF" width="14.4" height="172.6"/>
			<rect x="47.2" y="117" fill="#FFFFFF" width="14.4" height="172.6"/>
		</g>
		<g>
			<g>
				<path fill="#8DEF12" d="M0.3,142.9c6.2,1.9,7.1-9.3,1.5-7.9C-0.3,135.6-2.2,142.2,0.3,142.9z M-46.1,151.9
					c0.4-0.6,0.1-2.2-0.8-2C-48.1,150.1-46.8,152.8-46.1,151.9z M3.8,151c-1.8,1.5-0.7,5.2,1.9,3.5C8.2,152.8,6.1,149.1,3.8,151z
					 M14.7,135c-1.1-0.1-1.1,3.4-1.1,4C15.1,137.6,16.2,135.2,14.7,135z M-17.5,265C-17.4,264.8-17.3,264.6-17.5,265
					C-17.6,265.4-17.5,265.2-17.5,265c-0.8,2,2.3,2.7,2.8,0.4C-14.3,263.4-16.8,263.5-17.5,265z M26.7,156
					C26.7,156,26.6,155.9,26.7,156C26.6,155.9,26.7,156,26.7,156c0.2,0.2,0.2,0.3,0.3,0.4C26.9,156.3,26.8,156.1,26.7,156
					c2.1,2.5,9.5-2.2,7.1-5.5C31.1,146.6,23.9,152.6,26.7,156z M3.5,151.2c0,0,0.1-0.1,0.3-0.2c0.2-0.1,0.2-0.2,0.3-0.2
					C4,150.9,3.6,151.1,3.5,151.2z M-2.2,183.2c-1.3-1-3.2-1.6-5.6-1.6h-9.3l-4.5,22.7h9.1c2.5,0,4.8-0.6,6.6-1.6
					c3.9-2.2,6.4-7,6.4-12.4C0.6,187.3-0.3,184.6-2.2,183.2z M39.1,205.1C38,204.5,39.5,205.3,39.1,205.1L39.1,205.1z M56.4,217.4
					c-1.9-2.8-7.4-1.7-10.3-2.6c-2.6-0.9-2.8-2-3.9-4.2c-1.1-2-3.3-1.7-4.5-3.3c-1.2-1.7,0.1-4.5-0.7-6.5c-1-2.5-1-3.4-0.3-6.1
					c0.3-1.2-0.3-2.8,0.1-3.9c0.4-1.3,3.1-1.6,4.2-2c1.7-0.6,4.2-2,2.3-3.9c-2.1-2.2-5.3-0.2-7.7-0.1c-1.8,0.1-1.8-0.7-2.7-2
					c-0.6-0.8-1.5-0.8-2-1.4c-0.4-0.5,0.1-1.8,0.2-2.3l0,0c1.5-2.7,4.2-0.9,5.9-2.7c2.4-2.6-0.5-5.5-3.3-4.8c-2.2,0.5-4.6,4.5-7,3.4
					c-1-0.4-1.1-1.6-1.5-2.4c-0.4-0.8-2.5-1.4-4.2-1.7c-1.7-0.2-1.1-1-1.7-2.3c-0.5-1.2-1.3-1.4-0.6-2.9c0.4-0.8,2.7-5.9,1.9-6.7
					c-1.4-1.4-3,3.6-5.2,2.6c-3.7-1.8,3.9-18.8,7.9-23.3c2.2-2.4,5.5-5.9,5-9.5c-0.3-1.7-1.9-4-3.9-3.3c-2.6,0.9-3.9,6.9-4.7,9.2
					c-2.4,7.5-9.4,18.3-12.4,21.2c-2.6,2.5-4.1,0.7-6.9-0.5c-1.1-0.5-2.6-0.6-3.3-1.6c-0.8-1.3,0.5-2.8-0.4-3.8
					c-0.5-0.6-1.7-0.2-2.2-0.8c-0.7-0.9,0.2-1.1,0.5-1.9c0.8-2-1.4-4.8-3.7-4.5c-2,0.3-1.8,2.6-1.9,4.2c0,0.6,0.1,1.9-0.4,2.3
					c-0.9,0.9-1.7-0.2-1.9-1.1c-0.4-1.6,0.1-5.1-2.9-3.4c-2.1,1.2-1.7,4.3-2.8,6.1c-1.6,2.5-7.4,3.1-7.2-0.8
					c0.1-1.7,1.2-3.9,0.1-5.4c-0.7-1-2.2-1.4-3.2-0.6c-3.1,2.5,3.9,8.7-1.4,9.7c-2.2,0.4-6.3-0.3-6.6-2.9c-0.3-2.1,0.5-4.3-0.4-6.4
					c-1.1-2.7-4-2.8-5,0.1c-0.4,1.1-0.2,2,0.1,3.1c0.3,0.8,0.2,1.5,0.3,2.2c0.4,1.8,1.9,3.2,0.6,5.2c-1.4,2.2-1.8,0-3.4-0.3
					c-1.3-0.3-2.2,1-3.3,0.9s-1.7-1.2-2.4-1.9c-2-2.2-5.6-1.8-5.3,1.8c0.2,2,4.6,4.3,2.2,6.2c-3.3,2.6-7.1-3.6-8.9-5.9
					c-1.4-1.7-2.9-3.6-5-4.4c-2.2-0.8-6.1-0.7-6.4,2.3c-0.4,4.2,7.1,8.7,9.8,11.1c0.4,0.4,3.7,3.6,2.1,4.2c-0.9,0.3-2.4-2.4-3.3-0.5
					c-0.4,0.8,1.9,1.5,2.4,1.9c-0.6,0.3-1.1,1.1-1.7,1.3c-0.4,0.1-1.5-0.2-1.7,0c-0.5,0.4-0.6,2.1,0.3,2.4c-0.5,0.9-0.8,1-1.6,1
					c-0.4,0-1.2-0.7-1.5-0.9c-0.2-0.1-1.4-0.9-1.7-1.1c-0.4-0.2-1.1-0.5-1.3-0.6c-0.6-0.2-1.2-0.4-1.8-0.3c0.2,0,0.4,0,0.5,0
					c-3.7-0.3-4.7,5.7-1.9,7.4c1,0.6,3.6,1.2,3.1,3c-0.5,1.6-2.4,0.5-3.5,0.5c-2.5-0.1-6,2.3-5,5.2c0.4,1.1,1.8,1.5,2.1,2.6
					c0.3,1.2-1.2,1.8-1.1,2.7c0,0,0.3-0.2,0.6-0.6c-0.8,1.2-1.9,2.2-3.4,2.3c-1.7,0.1-4.6-1.5-5.6,0.7c-2,4.2,6.8,2.2,7.5,5.2
					c1.1,2.3-14.2,2.1-15.5,2.1c-2.1,0-13.4-0.6-11.3,3.5c1.3,2.5,4.9,1.6,7.1,1.2c2.8-0.5,14.6-1.9,17.7-1.7
					c2.9,0.2,0.8,0.5,1.3,2.2c0.3,0.9,1.6,1,1.9,1.9c0.3,1-0.6,1.7-1.1,2.4c-0.7,0.9-1.1,1.3-1.1,2.4c0.1,1.7,0.9,1.8,0.1,3.4
					c-0.4,0.8-1.1,2.3-1.8,2.7c-2.3,1.3-7.6,0.4-6.6,5c1.1,5.1,8,0.1,9.2,4.2c0.6,2.1,0.7,5.9,3,7c2.3,1,4.5-2.6,6.8-1.7
					c1.3,0.5,2.6,2.7,3.3,3.8c1,1.6,3.4,3.1,3.5,4.9c0.4,4.6-6.2,6.9-7.2,10.9v-0.1c-1.2,3.6-6,6.1-9,8.5c-1.9,1.5-5.5,3.8-4.3,6.7
					c1.7,4,5.5,0.1,7.1-1.7c3.5-4.1,6.8-8.5,10.6-12.2c1.3-1.2,5.9-5.1,7.1-5.4c1.4-0.3,2.3,0.8,3.6,1.1c1.8,0.4,3.2-0.1,4.6,1.1
					c0.5,0.4,0.7,0.9,1.3,1.3c0.4,0.3,1,0.3,1.4,0.7c0.5,0.4,0.4,1.1,0.8,1.5c0.4,0.5,1,0.5,1.4,0.9s1.8,0.9,1.6,2.4
					c-0.2,1.1-1.4,2.6-2,3.5c-0.8,1.4-1.6,2.8-2.4,4.2c-0.7,1.2-4.5,7.8-0.7,7.1c2.8-0.5,4.2-6.2,5.1-8.4c0.8-1.9,1.8-6.1,4.1-6.8
					c3.1-0.8,3,2.5,5.8,2.2c1.6-0.1,1.4-0.6,2.1,0.7c0.2,0.4,1.1,1.5,1.2,1.7c1.5,2.5-1.4,6.4-0.6,9.2c0.9,3.4,4.4,2.7,4.7-0.6
					c0.1-2.1-0.9-4.7,1.1-6.3c1.9-1.5,3.1,0.9,5-0.2c1.5-0.8,2-2.6,3.7-3.5c1.2-0.6,2.8-1.2,3.9-0.1c2.3,2.3,0.8,8.9,1,11.9
					c0.2,3.1,1.5,7.8,5.6,7.4c3.2-0.3,2.3-4.5,2-6.7c-0.4-2.6-4.6-17.5,2.1-14.8c3.3,1.3,2.8,6,4.7,8.5c1.8,2.3,6.8,3.7,8.1,0.1
					s-3.1-5.9-2.3-9.1c0.7-2.9,3.8-3.6,5.7-1.4c1.7,1.9,2.8,5.6,5.6,6.1c1.2,0.2,1.9-0.1,2-1.5c0-2.4-2.9-4.4-3.9-6.3
					c-1.1-2.1,0.2-4.9,2.3-5.9c3.7-1.8,4.2,2.1,6.2,3.9c1.6,1.4,4.8,1.2,4.8-1.3c0-2.8-5.6-5.4-4.9-7.8c0.3-0.8,1.7-1.1,2.2-2
					c0.8-1.4-0.1-2.4-0.4-3.9c-0.7-3.1,1-3.1,1.1-3.2c0.1-0.1,0.8-1.1,0.6-1.1c1.3-0.7,2.4,0.5,3.3,1.1c1.8,1.1,3.5,1.2,5.5,0.4l0,0
					c3.5-2.1,4.8-6.1,1.1-8.6c-0.6-0.4-2.4-1.1-2.5-1.8c-0.2-0.9,0.9-1,1.2-1.8c0.9-1.9-1.9-3.5-0.7-5.4c2.6-4.1,9.2-0.7,12.2,0.9
					c1.9,1,4.3,2.6,6.5,1.7C57.3,221.1,57.4,218.9,56.4,217.4z M-52.8,161.4L-52.8,161.4L-52.8,161.4L-52.8,161.4z M1.7,217.8
					c-4.1,1.6-8.9,2.1-13.8,2.1h-12.4l-2.2,11.3h9l-2.8,14.5h-37.9l2.8-14.5h8.9l9.9-50.7h-8.9l2.8-14.5h37.3c5.1,0,9,0.4,12.8,1.8
					c7.7,3,13.4,10.9,13.4,21.5C20.7,201.9,13,213.4,1.7,217.8z M41.1,202.7c-0.9-0.3-3.3,1.8-2.1,2.4
					C40.4,205.8,43.3,203.3,41.1,202.7z M-71.5,172.2C-71.5,172.2-71.4,172.2-71.5,172.2L-71.5,172.2z M-70.2,172.8
					c0.1,0,0.1,0.1,0.1,0.1C-70.3,172.8-70.3,172.7-70.2,172.8z"/>
			</g>
		</g>
	</g>
	<g>
		<polygon fill="#8DEF12" points="108.7,184 95,184 103,196.1 75.1,196.1 72.8,207.8 100.8,207.8 88.5,220.8 103.2,220.8 
			120.3,202.3 		"/>
		<polygon fill="#8DEF12" points="-158.1,184 -144.4,184 -152.4,196.1 -124.5,196.1 -122.2,207.8 -150.2,207.8 -137.9,220.8 
			-152.6,220.8 -169.7,202.3 		"/>
	</g>
</g>
<g>
	<g>
		<path fill="#8DEF12" d="M-61.7,332.9c-1.8,1.4-0.7,5,1.8,3.3C-57.4,334.7-59.4,331.1-61.7,332.9z M-65,325.2c6,1.8,7-8.9,1.4-7.5
			C-65.6,318.2-67.5,324.4-65,325.2z M-61.7,332.9C-60.7,332.2-62.6,333.7-61.7,332.9L-61.7,332.9z M-39.3,337.7
			C-39.4,337.5-39.5,337.4-39.3,337.7c0.2,0.2,0.3,0.3,0.3,0.4C-39,338-39.2,337.8-39.3,337.7c2,2.4,9.2-2.1,7-5.2
			C-35,328.7-42,334.4-39.3,337.7z M-110.3,333.7c0.4-0.5,0.1-2.1-0.8-1.9C-112.3,332-111,334.6-110.3,333.7z M-51,317.6
			c-1.1-0.1-1.1,3.2-1.1,3.8C-50.6,320.1-49.5,317.8-51,317.6z M-10.3,396.4c-1.9-2.7-7.3-1.6-10.1-2.5c-2.6-0.8-2.7-1.9-3.8-4
			c-1-1.9-3.3-1.6-4.4-3.2c-1.2-1.7,0.1-4.3-0.7-6.3c-1-2.4-1-3.2-0.3-5.8c0.3-1.2-0.3-2.7,0.1-3.7c0.4-1.2,3-1.5,4.1-1.9
			c1.6-0.5,4.1-1.9,2.3-3.8c-2-2.1-5.2-0.2-7.5-0.1c-1.7,0.1-1.7-0.7-2.6-1.9c-0.6-0.8-1.5-0.8-1.9-1.4c-0.4-0.5,0.1-1.8,0.2-2.2
			c1.5-2.5,4.1-0.9,5.8-2.6c2.3-2.5-0.5-5.3-3.2-4.6c-2.1,0.5-4.5,4.3-6.9,3.3c-0.9-0.4-1-1.5-1.5-2.3c-0.4-0.8-2.4-1.4-4.1-1.6
			s-1.1-1-1.6-2.2c-0.5-1.1-1.2-1.3-0.6-2.7c0.3-0.8,2.7-5.6,1.9-6.4c-1.4-1.4-3,3.5-5.1,2.5c-3.6-1.7,3.8-18,7.7-22.3
			c2.2-2.3,5.4-5.6,4.9-9.1c-0.3-1.7-1.8-3.8-3.8-3.2c-2.5,0.8-3.9,6.6-4.6,8.8c-2.3,7.2-9.2,17.6-12.1,20.3c-2.6,2.4-4,0.7-6.7-0.5
			c-1-0.4-2.5-0.6-3.2-1.6c-0.8-1.2,0.5-2.6-0.4-3.7c-0.5-0.6-1.7-0.2-2.1-0.7c-0.7-0.8,0.2-1,0.5-1.9c0.8-2-1.4-4.6-3.6-4.3
			c-2,0.3-1.7,2.5-1.8,4c0,0.6,0.1,1.8-0.4,2.2c-0.9,0.9-1.6-0.1-1.9-1c-0.4-1.5,0.1-4.9-2.9-3.3c-2.1,1.1-1.6,4.1-2.7,5.8
			c-1.5,2.4-7.2,2.9-7-0.8c0.1-1.6,1.2-3.7,0.1-5.2c-0.7-0.9-2.1-1.4-3.1-0.6c-3,2.4,3.8,8.3-1.3,9.3c-2.2,0.4-6.1-0.3-6.4-2.8
			c-0.3-2,0.5-4.2-0.3-6.2c-1.1-2.6-3.9-2.6-4.8,0.1c-0.4,1.1-0.2,1.9,0.1,2.9c0.3,0.8,0.2,1.4,0.3,2.1c0.4,1.7,1.9,3,0.6,5
			c-1.4,2.1-1.8,0-3.3-0.3c-1.3-0.2-2.1,0.9-3.2,0.8s-1.6-1.1-2.3-1.9c-1.9-2.1-5.5-1.7-5.2,1.7c0.2,1.9,4.5,4.1,2.1,5.9
			c-3.2,2.5-6.9-3.5-8.7-5.6c-1.4-1.7-2.8-3.4-4.9-4.2c-2.1-0.8-6-0.7-6.3,2.2c-0.4,4.1,6.9,8.3,9.6,10.6c0.4,0.4,3.6,3.4,2,4
			c-0.8,0.3-2.4-2.3-3.3-0.5c-0.4,0.8,1.9,1.4,2.3,1.8c-0.6,0.3-1.1,1.1-1.7,1.2c-0.4,0.1-1.5-0.2-1.7,0c-0.4,0.4-0.6,2,0.3,2.3
			c-0.5,0.9-0.8,1-1.6,0.9c-0.4,0-1.1-0.7-1.5-0.9c-0.2-0.1-1.4-0.9-1.6-1.1c-0.4-0.2-1.1-0.5-1.2-0.6c-0.5-0.2-1.2-0.4-1.8-0.3
			c0.2,0,0.3,0,0.5,0c-3.6-0.2-4.6,5.4-1.8,7.1c1,0.6,3.5,1.1,3,2.9c-0.5,1.5-2.3,0.5-3.4,0.5c-2.5-0.1-5.9,2.2-4.9,5
			c0.4,1,1.8,1.5,2,2.5c0.3,1.1-1.1,1.8-1.1,2.6c0,0,0.3-0.2,0.6-0.6c-0.8,1.2-1.9,2.1-3.3,2.2c-1.6,0.1-4.5-1.4-5.4,0.6
			c-1.9,4,6.6,2.2,7.3,5c1,2.2-13.8,2-15.1,2c-2.1,0-13.1-0.6-11,3.4c1.3,2.4,4.8,1.5,6.9,1.1c2.7-0.5,14.3-1.9,17.3-1.7
			c2.9,0.2,0.7,0.5,1.3,2.1c0.3,0.8,1.6,1,1.8,1.8c0.3,1-0.6,1.6-1.1,2.3c-0.7,0.9-1.1,1.3-1,2.3c0.1,1.6,0.8,1.7,0,3.3
			c-0.4,0.8-1.1,2.2-1.8,2.6c-2.3,1.3-7.4,0.4-6.4,4.8c1.1,4.9,7.8,0.1,8.9,4.1c0.6,2,0.6,5.7,3,6.7c2.3,1,4.4-2.5,6.6-1.6
			c1.2,0.5,2.5,2.6,3.2,3.6c1,1.5,3.3,2.9,3.4,4.7c0.4,4.4-6.1,6.6-7,10.4v-0.1c-1.2,3.5-5.9,5.9-8.8,8.1c-1.9,1.4-5.4,3.6-4.2,6.4
			c1.6,3.8,5.4,0.1,6.9-1.7c3.4-3.9,6.6-8.1,10.4-11.7c1.2-1.2,5.7-4.9,6.9-5.2c1.4-0.3,2.2,0.8,3.5,1c1.8,0.4,3.1-0.1,4.5,1.1
			c0.5,0.4,0.7,0.9,1.2,1.3c0.4,0.3,1,0.3,1.4,0.7c0.4,0.4,0.4,1,0.8,1.5s1,0.5,1.3,0.9c0.4,0.4,1.7,0.9,1.5,2.3
			c-0.2,1.1-1.4,2.5-2,3.4c-0.8,1.3-1.6,2.7-2.3,4c-0.6,1.1-4.4,7.5-0.7,6.8c2.8-0.5,4-5.9,5-8.1c0.8-1.8,1.8-5.9,4-6.5
			c3-0.8,3,2.4,5.7,2.1c1.6-0.1,1.4-0.6,2.1,0.7c0.2,0.3,1.1,1.4,1.2,1.6c1.5,2.4-1.3,6.1-0.6,8.8c0.8,3.2,4.3,2.6,4.5-0.6
			c0.1-2.1-0.9-4.5,1.1-6c1.8-1.5,3.1,0.9,4.9-0.2c1.5-0.8,2-2.5,3.6-3.3c1.2-0.6,2.7-1.1,3.8-0.1c2.2,2.2,0.8,8.5,1,11.4
			c0.2,3,1.5,7.4,5.4,7.1c3.1-0.2,2.2-4.3,1.9-6.4c-0.4-2.5-4.5-16.7,2-14.2c3.3,1.3,2.7,5.8,4.6,8.1c1.8,2.2,6.6,3.6,7.9,0.1
			c1.3-3.5-3.1-5.6-2.3-8.7c0.7-2.8,3.7-3.4,5.5-1.4c1.6,1.8,2.7,5.4,5.5,5.8c1.1,0.2,1.9-0.1,1.9-1.4c0-2.3-2.8-4.2-3.8-6
			c-1.1-2,0.2-4.7,2.3-5.7c3.6-1.7,4.1,2,6.1,3.7c1.6,1.3,4.6,1.1,4.6-1.3c0-2.7-5.5-5.2-4.8-7.5c0.3-0.8,1.7-1.1,2.2-1.9
			c0.8-1.3-0.1-2.3-0.4-3.7c-0.7-3,1-3,1.1-3.1s0.8-1.1,0.6-1c1.2-0.7,2.3,0.4,3.3,1c1.8,1.1,3.4,1.1,5.4,0.3l0,0
			c3.4-2,4.7-5.8,1.1-8.3c-0.6-0.4-2.3-1-2.5-1.8c-0.2-0.9,0.8-1,1.2-1.7c0.9-1.8-1.9-3.3-0.7-5.2c2.5-4,9-0.7,11.9,0.8
			c1.9,1,4.2,2.5,6.4,1.6C-9.5,400-9.3,397.9-10.3,396.4z M-116.8,342.9L-116.8,342.9L-116.8,342.9L-116.8,342.9z M-27.2,384.7
			C-28.2,384.2-26.8,384.9-27.2,384.7L-27.2,384.7z M-25.2,382.4c-0.9-0.3-3.2,1.7-2,2.3C-25.9,385.4-23,383-25.2,382.4z
			 M-133.8,353.8c0.1,0,0.1,0.1,0.1,0.1C-133.9,353.7-133.9,353.7-133.8,353.8z M-135.1,353.2C-135,353.2-135,353.2-135.1,353.2
			L-135.1,353.2z M-82.4,442C-82.3,441.8-82.2,441.6-82.4,442C-82.5,442.4-82.5,442.2-82.4,442c-0.8,1.9,2.3,2.6,2.7,0.4
			C-79.3,440.5-81.8,440.6-82.4,442z"/>
	</g>
</g>
<g>
	<polygon fill="#FFFFFF" points="-78.7,378.8 -91.1,378.8 -91.1,406 -101.9,397.4 -101.9,412.3 -85.3,425.4 -68.7,412.3 
		-68.7,397.4 -78.7,405.2 	"/>
	<path fill="#FFFFFF" d="M-64.1,368.5c0-0.6,0.2-1.4,0.2-2c0-8.7-7.2-15.9-16.2-15.9c-6.2,0-11.6,3.6-14.2,8.5
		c-0.8-0.2-1.8-0.4-2.8-0.4c-5,0-9.2,4.2-9.2,9.1v0.2c-5.4,1-9.4,5.5-9.4,11.1c0,6.3,5.2,11.3,11.4,11.3h10v-15.3h19v15.3h7.4
		c6.4,0,11.4-5.2,11.4-11.3C-56.7,374.2-59.7,370.1-64.1,368.5z"/>
</g>
<g>
	<g>
		<path d="M22.7,315.4c1.8,0.5,2.1-2.7,0.4-2.3C22.5,313.3,22,315.1,22.7,315.4z M3.4,348C3.4,348,3.4,347.9,3.4,348
			C3.4,347.9,3.4,347.9,3.4,348C3.4,348,3.5,348,3.4,348L3.4,348c0.6,0.7,2.8-0.6,2.1-1.6C4.7,345.3,2.6,347,3.4,348z M29.4,317.1
			L29.4,317.1L29.4,317.1C29.5,317.1,29.5,317.2,29.4,317.1C29.5,317.2,29.4,317.1,29.4,317.1c0.6,0.7,2.8-0.6,2.1-1.6
			C30.7,314.4,28.6,316.1,29.4,317.1z M0.2,321.7L0.2,321.7c0.1,0,0.1,0,0.2,0C0.3,321.7,0.2,321.7,0.2,321.7z M38.1,334.7
			c-0.6-0.8-2.2-0.5-3-0.8s-0.8-0.6-1.1-1.2s-1-0.5-1.3-0.9c-0.4-0.5,0-1.3-0.2-1.9c-0.3-0.7-0.3-1-0.1-1.7c0.1-0.4-0.1-0.8,0-1.1
			c0.1-0.4,0.9-0.5,1.2-0.6c0.5-0.2,1.2-0.6,0.7-1.1c-0.6-0.6-1.5-0.1-2.2,0c-0.5,0-0.5-0.2-0.8-0.6c-0.2-0.2-0.4-0.2-0.6-0.4
			c-0.1-0.2,0-0.5,0.1-0.7c0.4-0.8,1.2-0.3,1.7-0.8c0.7-0.7-0.1-1.6-1-1.4c-0.6,0.2-1.4,1.3-2.1,1c-0.3-0.1-0.3-0.5-0.4-0.7
			s-0.7-0.4-1.2-0.5s-0.3-0.3-0.5-0.7c-0.2-0.3-0.4-0.4-0.2-0.8c0.1-0.2,0.8-1.7,0.6-1.9c-0.4-0.4-0.9,1-1.5,0.7
			c-1.1-0.5,1.1-5.4,2.3-6.7c0.7-0.7,1.6-1.7,1.5-2.7c-0.1-0.5-0.5-1.1-1.1-0.9c-0.8,0.2-1.2,2-1.4,2.6c-0.7,2.2-2.8,5.3-3.6,6.1
			c-0.8,0.7-1.2,0.2-2-0.1c-0.3-0.1-0.8-0.2-1-0.5c-0.2-0.4,0.1-0.8-0.1-1.1c-0.1-0.2-0.5-0.1-0.6-0.2c-0.2-0.2,0.1-0.3,0.2-0.6
			c0.2-0.6-0.4-1.4-1.1-1.3c-0.6,0.1-0.5,0.7-0.5,1.2c0,0.2,0,0.5-0.1,0.7c-0.3,0.3-0.5,0-0.6-0.3c-0.1-0.5,0-1.5-0.9-1
			c-0.6,0.3-0.5,1.2-0.8,1.7c-0.5,0.7-2.2,0.9-2.1-0.2c0-0.5,0.4-1.1,0-1.6c-0.2-0.3-0.6-0.4-0.9-0.2c-0.9,0.7,1.1,2.5-0.4,2.8
			c-0.6,0.1-1.8-0.1-1.9-0.8c-0.1-0.6,0.2-1.2-0.1-1.8c-0.3-0.8-1.2-0.8-1.5,0c-0.1,0.3-0.1,0.6,0,0.9c0.1,0.2,0.1,0.4,0.1,0.6
			c0.1,0.5,0.6,0.9,0.2,1.5c-0.4,0.6-0.5,0-1-0.1c-0.4-0.1-0.6,0.3-1,0.2c-0.3,0-0.5-0.3-0.7-0.6c-0.6-0.6-1.6-0.5-1.5,0.5
			c0.1,0.6,1.3,1.2,0.6,1.8c-1,0.8-2.1-1-2.6-1.7c-0.4-0.5-0.8-1-1.5-1.2c-0.6-0.2-1.8-0.2-1.9,0.7c-0.1,1.2,2.1,2.5,2.9,3.2
			c0.1,0.1,1.1,1,0.6,1.2c-0.3,0.1-0.4,0.3-0.3,0.4c-0.2,0.1-1.2,1-0.9,1c-0.1,0.3-0.2,0.3-0.5,0.3c-0.1,0-0.3-0.2-0.4-0.3
			c-0.1,0-0.4-0.3-0.5-0.3c-0.1-0.1-0.3-0.1-0.4-0.2s-0.3-0.1-0.5-0.1c-1,0-1.3,1.6-0.5,2.1c0.3,0.2,1.1,0.3,0.9,0.9
			c-0.1,0.5-0.7,0.2-1,0.1c-0.7,0-1.8,0.7-1.5,1.5c0.1,0.3,0.5,0.4,0.6,0.7c0.1,0.3-0.3,0.5-0.3,0.8c0,0,0.1-0.1,0.2-0.2
			c-0.2,0.4-0.6,0.6-1,0.7c-0.5,0-1.3-0.4-1.6,0.2c-0.6,1.2,2,0.6,2.2,1.5c0.3,0.7-4.1,0.6-4.5,0.6c-0.6,0-3.9-0.2-3.3,1
			c0.4,0.7,1.4,0.5,2.1,0.3c0.8-0.2,4.3-0.6,5.2-0.5s0.2,0.1,0.4,0.6c0.1,0.2,0.5,0.3,0.5,0.5c0.1,0.3-0.2,0.5-0.3,0.7
			c-0.2,0.3-0.3,0.4-0.3,0.7c0,0.5,0.3,0.5,0,1c-0.1,0.2-0.3,0.7-0.5,0.8c-0.7,0.4-2.2,0.1-1.9,1.4c0.3,1.5,2.3,0,2.7,1.2
			c0.2,0.6,0.2,1.7,0.9,2s1.3-0.7,2-0.5c0.4,0.1,0.8,0.8,1,1.1c0.3,0.5,1,0.9,1,1.4c0.1,1.3-1.8,2-2.1,3.1l0,0
			c-0.4,1-1.8,1.8-2.6,2.4c-0.6,0.4-1.6,1.1-1.3,1.9c0.5,1.1,1.6,0,2.1-0.5c1-1.2,2-2.4,3.1-3.5c0.4-0.3,1.7-1.5,2.1-1.5
			c0.4-0.1,0.7,0.2,1.1,0.3c0.5,0.1,0.9,0,1.3,0.3c0.1,0.1,0.2,0.3,0.4,0.4c0.1,0.1,0.3,0.1,0.4,0.2s0.1,0.3,0.2,0.4
			s0.3,0.2,0.4,0.3c0.1,0.1,0.5,0.3,0.5,0.7c0,0.3-0.4,0.7-0.6,1c-0.2,0.4-0.5,0.8-0.7,1.2c-0.2,0.3-1.3,2.3-0.2,2.1
			c0.8-0.2,1.2-1.8,1.5-2.4c0.2-0.6,0.5-1.8,1.2-1.9c0.9-0.2,0.9,0.7,1.7,0.6c0.5,0,0.4-0.2,0.6,0.2c0.1,0.1,0.3,0.4,0.4,0.5
			c0.4,0.7-0.4,1.8-0.2,2.6c0.3,1,1.3,0.8,1.4-0.2c0-0.6-0.3-1.3,0.3-1.8c0.6-0.4,0.9,0.3,1.5,0c0.4-0.2,0.6-0.8,1.1-1
			c0.4-0.2,0.8-0.3,1.1,0c0.7,0.6,0.2,2.6,0.3,3.4c0.1,0.9,0.4,2.2,1.6,2.1c0.9-0.1,0.7-1.3,0.6-1.9c-0.1-0.7-1.4-5,0.6-4.3
			c1,0.4,0.8,1.7,1.4,2.4c0.5,0.7,2,1.1,2.4,0c0.4-1-0.9-1.7-0.7-2.6c0.2-0.8,1.1-1,1.7-0.4c0.5,0.5,0.8,1.6,1.6,1.8
			c0.3,0.1,0.6,0,0.6-0.4c0-0.7-0.9-1.3-1.1-1.8c-0.3-0.6,0.1-1.4,0.7-1.7c1.1-0.5,1.2,0.6,1.8,1.1c0.5,0.4,1.4,0.3,1.4-0.4
			c0-0.8-1.7-1.6-1.4-2.2c0.1-0.2,0.5-0.3,0.6-0.6c0.2-0.4,0-0.7-0.1-1.1c-0.2-0.9,0.3-0.9,0.3-0.9l0.2-0.3c0.4-0.2,0.7,0.1,1,0.3
			c0.5,0.3,1,0.3,1.6,0.1l0,0c1-0.6,1.4-1.7,0.3-2.5c-0.2-0.1-0.7-0.3-0.7-0.5c-0.1-0.3,0.3-0.3,0.4-0.5c0.3-0.6-0.6-1-0.2-1.5
			c0.7-1.2,2.7-0.2,3.6,0.2c0.6,0.3,1.3,0.7,1.9,0.5C38.4,335.8,38.4,335.2,38.1,334.7z M6.2,318.7L6.2,318.7L6.2,318.7L6.2,318.7z
			 M1.1,321.9L1.1,321.9C1,321.9,1,321.9,1.1,321.9z M0.7,321.8L0.7,321.8C0.7,321.7,0.7,321.7,0.7,321.8z"/>
	</g>
</g>
<g>
	<polygon fill="#FFFFFF" points="12.8,342.4 18.8,342.4 18.8,329.4 24,333.5 24,326.3 16,320 8,326.3 8,333.5 12.8,329.8 	"/>
</g>
<path fill="#666666" d="M-71.2,82c-0.7-0.7-1.7-1.1-2.6-1.1c-1,0-2,0.3-2.7,1.1c-0.2,0.2-0.3,0.4-0.5,0.6c-0.2,0.3-0.4,0.7-0.5,1
	c-0.4,1.3-0.1,2.7,0.9,3.8l7.4,7.4l0.8-0.8l-7.4-7.4c-0.6-0.6-0.8-1.3-0.8-2.1c0-0.4,0.1-0.8,0.3-1.2c0.1-0.2,0.3-0.4,0.4-0.6
	c1.1-1.1,2.8-1.1,3.8,0l8.2,8.2c0.5,0.5,0.6,1.2,0.4,1.9c-0.1,0.2-0.2,0.4-0.4,0.6c-0.1,0.1-0.3,0.2-0.4,0.3c0,0-0.1,0-0.1,0.1
	c-0.6,0.3-1.4,0.1-1.9-0.4l-7.1-7.1c-0.3-0.3-0.3-0.7,0-1c0.3-0.3,0.7-0.3,1,0l5.5,5.5l0.8-0.8l-5.5-5.5c-0.7-0.7-1.8-0.7-2.5,0
	c-0.2,0.2-0.3,0.4-0.4,0.6c-0.2,0.6-0.1,1.4,0.4,1.9l7.1,7.1c0.3,0.3,0.7,0.5,1.1,0.7c0.8,0.3,1.7,0.2,2.4-0.3c0,0,0,0,0,0
	c0,0,0,0,0,0c0.1-0.1,0.3-0.2,0.4-0.3c0,0,0,0,0,0c1.1-1.1,1.1-2.9,0-3.9L-71.2,82z"/>
</svg>
