<?xml version="1.0" encoding="utf-8"?>
<!-- Generator: Adobe Illustrator 19.0.0, SVG Export Plug-In . SVG Version: 6.00 Build 0)  -->
<svg version="1.1" id="Calque_1" xmlns="http://www.w3.org/2000/svg" xmlns:xlink="http://www.w3.org/1999/xlink" x="0px" y="0px"
	 width="500px" height="500px" viewBox="-47 170.9 500 500" style="enable-background:new -47 170.9 500 500;" xml:space="preserve"
	>
<style type="text/css">
	.st0{fill:#FFFFFF;}
	.st1{fill:#CCCCCC;}
	.st2{fill:none;}
	.st3{fill:#666666;}
	.st4{fill:#E6E6E6;}
	.st5{fill:#8DEF12;}
</style>
<g>
	<path class="st0" d="M-29,220.9h-16c-1.1,0-2-0.9-2-2v-16c0-1.1,0.9-2,2-2h16c1.1,0,2,0.9,2,2v16C-27,220-27.9,220.9-29,220.9z"/>
	<path class="st1" d="M-29,201.9c0.6,0,1,0.4,1,1v16c0,0.6-0.4,1-1,1h-16c-0.6,0-1-0.4-1-1v-16c0-0.6,0.4-1,1-1H-29 M-29,200.9h-16
		c-1.1,0-2,0.9-2,2v16c0,1.1,0.9,2,2,2h16c1.1,0,2-0.9,2-2v-16C-27,201.8-27.9,200.9-29,200.9L-29,200.9z"/>
</g>
<g>
	<circle class="st0" cx="-37" cy="180.9" r="10"/>
	<path class="st1" d="M-37,171.9c5,0,9,4,9,9s-4,9-9,9s-9-4-9-9S-42,171.9-37,171.9 M-37,170.9c-5.5,0-10,4.5-10,10s4.5,10,10,10
		s10-4.5,10-10S-31.5,170.9-37,170.9L-37,170.9z"/>
</g>
<g>
	<path class="st0" d="M0.7,220.9h-16c-1.1,0-2-0.9-2-2v-16c0-1.1,0.9-2,2-2h16c1.1,0,2,0.9,2,2v16C2.7,220,1.8,220.9,0.7,220.9z"/>
	<path class="st1" d="M0.7,201.9c0.6,0,1,0.4,1,1v16c0,0.6-0.4,1-1,1h-16c-0.6,0-1-0.4-1-1v-16c0-0.6,0.4-1,1-1H0.7 M0.7,200.9h-16
		c-1.1,0-2,0.9-2,2v16c0,1.1,0.9,2,2,2h16c1.1,0,2-0.9,2-2v-16C2.7,201.8,1.8,200.9,0.7,200.9L0.7,200.9z"/>
</g>
<g>
	<path class="st2" d="M30.7,220.9h-16c-1.1,0-2-0.9-2-2v-16c0-1.1,0.9-2,2-2h16c1.1,0,2,0.9,2,2v16C32.7,220,31.8,220.9,30.7,220.9z
		"/>
	<path class="st2" d="M30.7,201.9c0.6,0,1,0.4,1,1v16c0,0.6-0.4,1-1,1h-16c-0.6,0-1-0.4-1-1v-16c0-0.6,0.4-1,1-1H30.7 M30.7,200.9
		h-16c-1.1,0-2,0.9-2,2v16c0,1.1,0.9,2,2,2h16c1.1,0,2-0.9,2-2v-16C32.7,201.8,31.8,200.9,30.7,200.9L30.7,200.9z"/>
</g>
<g>
	<path class="st2" d="M60.7,220.9h-16c-1.1,0-2-0.9-2-2v-16c0-1.1,0.9-2,2-2h16c1.1,0,2,0.9,2,2v16C62.7,220,61.8,220.9,60.7,220.9z
		"/>
	<path class="st2" d="M60.7,201.9c0.6,0,1,0.4,1,1v16c0,0.6-0.4,1-1,1h-16c-0.6,0-1-0.4-1-1v-16c0-0.6,0.4-1,1-1H60.7 M60.7,200.9
		h-16c-1.1,0-2,0.9-2,2v16c0,1.1,0.9,2,2,2h16c1.1,0,2-0.9,2-2v-16C62.7,201.8,61.8,200.9,60.7,200.9L60.7,200.9z"/>
</g>
<path class="st3" d="M28.2,208.9c0.4,0.3,0.4,0.8,0,1.2l-5.1,4.6c-0.4,0.3-0.9,0.3-1.3,0l-5.1-4.6c-0.4-0.3-0.4-0.8,0-1.2H28.2z"/>
<g>
	<circle class="st0" cx="-7.3" cy="180.9" r="10"/>
	<path class="st1" d="M-7.3,171.9c5,0,9,4,9,9s-4,9-9,9s-9-4-9-9S-12.3,171.9-7.3,171.9 M-7.3,170.9c-5.5,0-10,4.5-10,10
		s4.5,10,10,10s10-4.5,10-10S-1.8,170.9-7.3,170.9L-7.3,170.9z"/>
</g>
<circle class="st3" cx="-7.3" cy="180.9" r="4.3"/>
<path class="st3" d="M0.1,206.3c-0.5-0.5-1.4-0.5-2,0l-6.7,6.7l-3.8-3.8c-0.5-0.5-1.4-0.5-2,0c-0.3,0.3-0.4,0.6-0.4,1
	c0,0.4,0.1,0.7,0.4,1l5.7,5.7l8.7-8.7c0.3-0.3,0.4-0.6,0.4-1C0.4,206.8,0.4,206.6,0.1,206.3z"/>
<g>
	<g>
		<rect x="8" y="235.9" class="st4" width="180" height="180"/>
		<g>
			<rect x="11.7" y="239.6" class="st0" width="14.4" height="172.6"/>
			<rect x="29.3" y="239.6" class="st0" width="14.4" height="172.6"/>
			<rect x="46.9" y="239.6" class="st0" width="14.4" height="172.6"/>
			<rect x="64.4" y="239.6" class="st0" width="14.4" height="172.6"/>
			<rect x="82" y="239.6" class="st0" width="14.4" height="172.6"/>
			<rect x="99.6" y="239.6" class="st0" width="14.4" height="172.6"/>
			<rect x="117.2" y="239.6" class="st0" width="14.4" height="172.6"/>
			<rect x="134.8" y="239.6" class="st0" width="14.4" height="172.6"/>
			<rect x="152.3" y="239.6" class="st0" width="14.4" height="172.6"/>
			<rect x="169.9" y="239.6" class="st0" width="14.4" height="172.6"/>
		</g>
		<g>
			<g>
				<path class="st5" d="M123,265.5c6.2,1.9,7.1-9.3,1.5-7.9C122.4,258.2,120.5,264.8,123,265.5z M76.6,274.5c0.4-0.6,0.1-2.2-0.8-2
					C74.6,272.7,75.9,275.4,76.6,274.5z M126.5,273.6c-1.8,1.5-0.7,5.2,1.9,3.5C130.9,275.4,128.8,271.7,126.5,273.6z M137.4,257.6
					c-1.1-0.1-1.1,3.4-1.1,4C137.8,260.2,138.9,257.8,137.4,257.6z M105.2,387.6C105.3,387.4,105.4,387.2,105.2,387.6
					C105.1,388,105.2,387.8,105.2,387.6c-0.8,2,2.3,2.7,2.8,0.4C108.4,386,105.9,386.1,105.2,387.6z M149.4,278.6
					C149.4,278.6,149.3,278.5,149.4,278.6C149.3,278.5,149.4,278.6,149.4,278.6c0.2,0.2,0.2,0.3,0.3,0.4
					C149.6,278.9,149.5,278.7,149.4,278.6c2.1,2.5,9.5-2.2,7.1-5.5C153.8,269.2,146.6,275.2,149.4,278.6z M126.2,273.8
					c0,0,0.1-0.1,0.3-0.2c0.2-0.1,0.2-0.2,0.3-0.2C126.7,273.5,126.3,273.7,126.2,273.8z M120.5,305.8c-1.3-1-3.2-1.6-5.6-1.6h-9.3
					l-4.5,22.7h9.1c2.5,0,4.8-0.6,6.6-1.6c3.9-2.2,6.4-7,6.4-12.4C123.3,309.9,122.4,307.2,120.5,305.8z M161.8,327.7
					C160.7,327.1,162.2,327.9,161.8,327.7L161.8,327.7z M179.1,340c-1.9-2.8-7.4-1.7-10.3-2.6c-2.6-0.9-2.8-2-3.9-4.2
					c-1.1-2-3.3-1.7-4.5-3.3c-1.2-1.7,0.1-4.5-0.7-6.5c-1-2.5-1-3.4-0.3-6.1c0.3-1.2-0.3-2.8,0.1-3.9c0.4-1.3,3.1-1.6,4.2-2
					c1.7-0.6,4.2-2,2.3-3.9c-2.1-2.2-5.3-0.2-7.7-0.1c-1.8,0.1-1.8-0.7-2.7-2c-0.6-0.8-1.5-0.8-2-1.4c-0.4-0.5,0.1-1.8,0.2-2.3l0,0
					c1.5-2.7,4.2-0.9,5.9-2.7c2.4-2.6-0.5-5.5-3.3-4.8c-2.2,0.5-4.6,4.5-7,3.4c-1-0.4-1.1-1.6-1.5-2.4c-0.4-0.8-2.5-1.4-4.2-1.7
					c-1.7-0.2-1.1-1-1.7-2.3c-0.5-1.2-1.3-1.4-0.6-2.9c0.4-0.8,2.7-5.9,1.9-6.7c-1.4-1.4-3,3.6-5.2,2.6c-3.7-1.8,3.9-18.8,7.9-23.3
					c2.2-2.4,5.5-5.9,5-9.5c-0.3-1.7-1.9-4-3.9-3.3c-2.6,0.9-3.9,6.9-4.7,9.2c-2.4,7.5-9.4,18.3-12.4,21.2c-2.6,2.5-4.1,0.7-6.9-0.5
					c-1.1-0.5-2.6-0.6-3.3-1.6c-0.8-1.3,0.5-2.8-0.4-3.8c-0.5-0.6-1.7-0.2-2.2-0.8c-0.7-0.9,0.2-1.1,0.5-1.9c0.8-2-1.4-4.8-3.7-4.5
					c-2,0.3-1.8,2.6-1.9,4.2c0,0.6,0.1,1.9-0.4,2.3c-0.9,0.9-1.7-0.2-1.9-1.1c-0.4-1.6,0.1-5.1-2.9-3.4c-2.1,1.2-1.7,4.3-2.8,6.1
					c-1.6,2.5-7.4,3.1-7.2-0.8c0.1-1.7,1.2-3.9,0.1-5.4c-0.7-1-2.2-1.4-3.2-0.6c-3.1,2.5,3.9,8.7-1.4,9.7c-2.2,0.4-6.3-0.3-6.6-2.9
					c-0.3-2.1,0.5-4.3-0.4-6.4c-1.1-2.7-4-2.8-5,0.1c-0.4,1.1-0.2,2,0.1,3.1c0.3,0.8,0.2,1.5,0.3,2.2c0.4,1.8,1.9,3.2,0.6,5.2
					c-1.4,2.2-1.8,0-3.4-0.3c-1.3-0.3-2.2,1-3.3,0.9s-1.7-1.2-2.4-1.9c-2-2.2-5.6-1.8-5.3,1.8c0.2,2,4.6,4.3,2.2,6.2
					c-3.3,2.6-7.1-3.6-8.9-5.9c-1.4-1.7-2.9-3.6-5-4.4c-2.2-0.8-6.1-0.7-6.4,2.3c-0.4,4.2,7.1,8.7,9.8,11.1c0.4,0.4,3.7,3.6,2.1,4.2
					c-0.9,0.3-2.4-2.4-3.3-0.5c-0.4,0.8,1.9,1.5,2.4,1.9c-0.6,0.3-1.1,1.1-1.7,1.3c-0.4,0.1-1.5-0.2-1.7,0c-0.5,0.4-0.6,2.1,0.3,2.4
					c-0.5,0.9-0.8,1-1.6,1c-0.4,0-1.2-0.7-1.5-0.9c-0.2-0.1-1.4-0.9-1.7-1.1c-0.4-0.2-1.1-0.5-1.3-0.6c-0.6-0.2-1.2-0.4-1.8-0.3
					c0.2,0,0.4,0,0.5,0c-3.7-0.3-4.7,5.7-1.9,7.4c1,0.6,3.6,1.2,3.1,3c-0.5,1.6-2.4,0.5-3.5,0.5c-2.5-0.1-6,2.3-5,5.2
					c0.4,1.1,1.8,1.5,2.1,2.6c0.3,1.2-1.2,1.8-1.1,2.7c0,0,0.3-0.2,0.6-0.6c-0.8,1.2-1.9,2.2-3.4,2.3c-1.7,0.1-4.6-1.5-5.6,0.7
					c-2,4.2,6.8,2.2,7.5,5.2c1.1,2.3-14.2,2.1-15.5,2.1c-2.1,0-13.4-0.6-11.3,3.5c1.3,2.5,4.9,1.6,7.1,1.2
					c2.8-0.5,14.6-1.9,17.7-1.7c2.9,0.2,0.8,0.5,1.3,2.2c0.3,0.9,1.6,1,1.9,1.9c0.3,1-0.6,1.7-1.1,2.4c-0.7,0.9-1.1,1.3-1.1,2.4
					c0.1,1.7,0.9,1.8,0.1,3.4c-0.4,0.8-1.1,2.3-1.8,2.7c-2.3,1.3-7.6,0.4-6.6,5c1.1,5.1,8,0.1,9.2,4.2c0.6,2.1,0.7,5.9,3,7
					c2.3,1,4.5-2.6,6.8-1.7c1.3,0.5,2.6,2.7,3.3,3.8c1,1.6,3.4,3.1,3.5,4.9c0.4,4.6-6.2,6.9-7.2,10.9V378c-1.2,3.6-6,6.1-9,8.5
					c-1.9,1.5-5.5,3.8-4.3,6.7c1.7,4,5.5,0.1,7.1-1.7c3.5-4.1,6.8-8.5,10.6-12.2c1.3-1.2,5.9-5.1,7.1-5.4c1.4-0.3,2.3,0.8,3.6,1.1
					c1.8,0.4,3.2-0.1,4.6,1.1c0.5,0.4,0.7,0.9,1.3,1.3c0.4,0.3,1,0.3,1.4,0.7c0.5,0.4,0.4,1.1,0.8,1.5c0.4,0.5,1,0.5,1.4,0.9
					s1.8,0.9,1.6,2.4c-0.2,1.1-1.4,2.6-2,3.5c-0.8,1.4-1.6,2.8-2.4,4.2c-0.7,1.2-4.5,7.8-0.7,7.1c2.8-0.5,4.2-6.2,5.1-8.4
					c0.8-1.9,1.8-6.1,4.1-6.8c3.1-0.8,3,2.5,5.8,2.2c1.6-0.1,1.4-0.6,2.1,0.7c0.2,0.4,1.1,1.5,1.2,1.7c1.5,2.5-1.4,6.4-0.6,9.2
					c0.9,3.4,4.4,2.7,4.7-0.6c0.1-2.1-0.9-4.7,1.1-6.3c1.9-1.5,3.1,0.9,5-0.2c1.5-0.8,2-2.6,3.7-3.5c1.2-0.6,2.8-1.2,3.9-0.1
					c2.3,2.3,0.8,8.9,1,11.9c0.2,3.1,1.5,7.8,5.6,7.4c3.2-0.3,2.3-4.5,2-6.7c-0.4-2.6-4.6-17.5,2.1-14.8c3.3,1.3,2.8,6,4.7,8.5
					c1.8,2.3,6.8,3.7,8.1,0.1s-3.1-5.9-2.3-9.1c0.7-2.9,3.8-3.6,5.7-1.4c1.7,1.9,2.8,5.6,5.6,6.1c1.2,0.2,1.9-0.1,2-1.5
					c0-2.4-2.9-4.4-3.9-6.3c-1.1-2.1,0.2-4.9,2.3-5.9c3.7-1.8,4.2,2.1,6.2,3.9c1.6,1.4,4.8,1.2,4.8-1.3c0-2.8-5.6-5.4-4.9-7.8
					c0.3-0.8,1.7-1.1,2.2-2c0.8-1.4-0.1-2.4-0.4-3.9c-0.7-3.1,1-3.1,1.1-3.2c0.1-0.1,0.8-1.1,0.6-1.1c1.3-0.7,2.4,0.5,3.3,1.1
					c1.8,1.1,3.5,1.2,5.5,0.4l0,0c3.5-2.1,4.8-6.1,1.1-8.6c-0.6-0.4-2.4-1.1-2.5-1.8c-0.2-0.9,0.9-1,1.2-1.8
					c0.9-1.9-1.9-3.5-0.7-5.4c2.6-4.1,9.2-0.7,12.2,0.9c1.9,1,4.3,2.6,6.5,1.7C180,343.7,180.1,341.5,179.1,340z M69.9,284L69.9,284
					L69.9,284L69.9,284z M124.4,340.4c-4.1,1.6-8.9,2.1-13.8,2.1H98.2L96,353.8h9l-2.8,14.5H64.3l2.8-14.5H76l9.9-50.7H77l2.8-14.5
					h37.3c5.1,0,9,0.4,12.8,1.8c7.7,3,13.4,10.9,13.4,21.5C143.4,324.5,135.7,336,124.4,340.4z M163.8,325.3
					c-0.9-0.3-3.3,1.8-2.1,2.4C163.1,328.4,166,325.9,163.8,325.3z M51.2,294.8C51.2,294.8,51.3,294.8,51.2,294.8L51.2,294.8z
					 M52.5,295.4c0.1,0,0.1,0.1,0.1,0.1C52.4,295.4,52.4,295.3,52.5,295.4z"/>
			</g>
		</g>
	</g>
	<g>
		<polygon class="st5" points="231.4,306.6 217.7,306.6 225.7,318.7 197.8,318.7 195.5,330.4 223.5,330.4 211.2,343.4 225.9,343.4 
			243,324.9 		"/>
		<polygon class="st5" points="-35.4,306.6 -21.7,306.6 -29.7,318.7 -1.8,318.7 0.5,330.4 -27.5,330.4 -15.2,343.4 -29.9,343.4 
			-47,324.9 		"/>
	</g>
</g>
<g>
	<g>
		<path d="M145.4,438c1.8,0.5,2.1-2.7,0.4-2.3C145.2,435.9,144.7,437.7,145.4,438z M126.1,470.6
			C126.1,470.6,126.1,470.5,126.1,470.6C126.1,470.5,126.1,470.5,126.1,470.6C126.1,470.6,126.2,470.6,126.1,470.6L126.1,470.6
			c0.6,0.7,2.8-0.6,2.1-1.6C127.4,467.9,125.3,469.6,126.1,470.6z M152.1,439.7L152.1,439.7L152.1,439.7
			C152.2,439.7,152.2,439.8,152.1,439.7C152.2,439.8,152.1,439.7,152.1,439.7c0.6,0.7,2.8-0.6,2.1-1.6
			C153.4,437,151.3,438.7,152.1,439.7z M122.9,444.3L122.9,444.3c0.1,0,0.1,0,0.2,0C123,444.3,122.9,444.3,122.9,444.3z
			 M160.8,457.3c-0.6-0.8-2.2-0.5-3-0.8c-0.8-0.3-0.8-0.6-1.1-1.2s-1-0.5-1.3-0.9c-0.4-0.5,0-1.3-0.2-1.9c-0.3-0.7-0.3-1-0.1-1.7
			c0.1-0.4-0.1-0.8,0-1.1c0.1-0.4,0.9-0.5,1.2-0.6c0.5-0.2,1.2-0.6,0.7-1.1c-0.6-0.6-1.5-0.1-2.2,0c-0.5,0-0.5-0.2-0.8-0.6
			c-0.2-0.2-0.4-0.2-0.6-0.4c-0.1-0.2,0-0.5,0.1-0.7c0.4-0.8,1.2-0.3,1.7-0.8c0.7-0.7-0.1-1.6-1-1.4c-0.6,0.2-1.4,1.3-2.1,1
			c-0.3-0.1-0.3-0.5-0.4-0.7c-0.1-0.2-0.7-0.4-1.2-0.5s-0.3-0.3-0.5-0.7c-0.2-0.3-0.4-0.4-0.2-0.8c0.1-0.2,0.8-1.7,0.6-1.9
			c-0.4-0.4-0.9,1-1.5,0.7c-1.1-0.5,1.1-5.4,2.3-6.7c0.7-0.7,1.6-1.7,1.5-2.7c-0.1-0.5-0.5-1.1-1.1-0.9c-0.8,0.2-1.2,2-1.4,2.6
			c-0.7,2.2-2.8,5.3-3.6,6.1c-0.8,0.7-1.2,0.2-2-0.1c-0.3-0.1-0.8-0.2-1-0.5c-0.2-0.4,0.1-0.8-0.1-1.1c-0.1-0.2-0.5-0.1-0.6-0.2
			c-0.2-0.2,0.1-0.3,0.2-0.6c0.2-0.6-0.4-1.4-1.1-1.3c-0.6,0.1-0.5,0.7-0.5,1.2c0,0.2,0,0.5-0.1,0.7c-0.3,0.3-0.5,0-0.6-0.3
			c-0.1-0.5,0-1.5-0.9-1c-0.6,0.3-0.5,1.2-0.8,1.7c-0.5,0.7-2.2,0.9-2.1-0.2c0-0.5,0.4-1.1,0-1.6c-0.2-0.3-0.6-0.4-0.9-0.2
			c-0.9,0.7,1.1,2.5-0.4,2.8c-0.6,0.1-1.8-0.1-1.9-0.8c-0.1-0.6,0.2-1.2-0.1-1.8c-0.3-0.8-1.2-0.8-1.5,0c-0.1,0.3-0.1,0.6,0,0.9
			c0.1,0.2,0.1,0.4,0.1,0.6c0.1,0.5,0.6,0.9,0.2,1.5s-0.5,0-1-0.1c-0.4-0.1-0.6,0.3-1,0.2c-0.3,0-0.5-0.3-0.7-0.6
			c-0.6-0.6-1.6-0.5-1.5,0.5c0.1,0.6,1.3,1.2,0.6,1.8c-1,0.8-2.1-1-2.6-1.7c-0.4-0.5-0.8-1-1.5-1.2c-0.6-0.2-1.8-0.2-1.9,0.7
			c-0.1,1.2,2.1,2.5,2.9,3.2c0.1,0.1,1.1,1,0.6,1.2c-0.3,0.1-0.4,0.3-0.3,0.4c-0.2,0.1-1.2,1-0.9,1c-0.1,0.3-0.2,0.3-0.5,0.3
			c-0.1,0-0.3-0.2-0.4-0.3c-0.1,0-0.4-0.3-0.5-0.3c-0.1-0.1-0.3-0.1-0.4-0.2s-0.3-0.1-0.5-0.1c-1,0-1.3,1.6-0.5,2.1
			c0.3,0.2,1.1,0.3,0.9,0.9c-0.1,0.5-0.7,0.2-1,0.1c-0.7,0-1.8,0.7-1.5,1.5c0.1,0.3,0.5,0.4,0.6,0.7c0.1,0.3-0.3,0.5-0.3,0.8
			c0,0,0.1-0.1,0.2-0.2c-0.2,0.4-0.6,0.6-1,0.7c-0.5,0-1.3-0.4-1.6,0.2c-0.6,1.2,2,0.6,2.2,1.5c0.3,0.7-4.1,0.6-4.5,0.6
			c-0.6,0-3.9-0.2-3.3,1c0.4,0.7,1.4,0.5,2.1,0.3c0.8-0.2,4.3-0.6,5.2-0.5c0.9,0.1,0.2,0.1,0.4,0.6c0.1,0.2,0.5,0.3,0.5,0.5
			c0.1,0.3-0.2,0.5-0.3,0.7c-0.2,0.3-0.3,0.4-0.3,0.7c0,0.5,0.3,0.5,0,1c-0.1,0.2-0.3,0.7-0.5,0.8c-0.7,0.4-2.2,0.1-1.9,1.4
			c0.3,1.5,2.3,0,2.7,1.2c0.2,0.6,0.2,1.7,0.9,2c0.7,0.3,1.3-0.7,2-0.5c0.4,0.1,0.8,0.8,1,1.1c0.3,0.5,1,0.9,1,1.4
			c0.1,1.3-1.8,2-2.1,3.1l0,0c-0.4,1-1.8,1.8-2.6,2.4c-0.6,0.4-1.6,1.1-1.3,1.9c0.5,1.1,1.6,0,2.1-0.5c1-1.2,2-2.4,3.1-3.5
			c0.4-0.3,1.7-1.5,2.1-1.5c0.4-0.1,0.7,0.2,1.1,0.3c0.5,0.1,0.9,0,1.3,0.3c0.1,0.1,0.2,0.3,0.4,0.4c0.1,0.1,0.3,0.1,0.4,0.2
			c0.1,0.1,0.1,0.3,0.2,0.4c0.1,0.1,0.3,0.2,0.4,0.3c0.1,0.1,0.5,0.3,0.5,0.7c0,0.3-0.4,0.7-0.6,1c-0.2,0.4-0.5,0.8-0.7,1.2
			c-0.2,0.3-1.3,2.3-0.2,2.1c0.8-0.2,1.2-1.8,1.5-2.4c0.2-0.6,0.5-1.8,1.2-1.9c0.9-0.2,0.9,0.7,1.7,0.6c0.5,0,0.4-0.2,0.6,0.2
			c0.1,0.1,0.3,0.4,0.4,0.5c0.4,0.7-0.4,1.8-0.2,2.6c0.3,1,1.3,0.8,1.4-0.2c0-0.6-0.3-1.3,0.3-1.8c0.6-0.4,0.9,0.3,1.5,0
			c0.4-0.2,0.6-0.8,1.1-1c0.4-0.2,0.8-0.3,1.1,0c0.7,0.6,0.2,2.6,0.3,3.4c0.1,0.9,0.4,2.2,1.6,2.1c0.9-0.1,0.7-1.3,0.6-1.9
			c-0.1-0.7-1.4-5,0.6-4.3c1,0.4,0.8,1.7,1.4,2.4c0.5,0.7,2,1.1,2.4,0c0.4-1-0.9-1.7-0.7-2.6c0.2-0.8,1.1-1,1.7-0.4
			c0.5,0.5,0.8,1.6,1.6,1.8c0.3,0.1,0.6,0,0.6-0.4c0-0.7-0.9-1.3-1.1-1.8c-0.3-0.6,0.1-1.4,0.7-1.7c1.1-0.5,1.2,0.6,1.8,1.1
			c0.5,0.4,1.4,0.3,1.4-0.4c0-0.8-1.7-1.6-1.4-2.2c0.1-0.2,0.5-0.3,0.6-0.6c0.2-0.4,0-0.7-0.1-1.1c-0.2-0.9,0.3-0.9,0.3-0.9l0.2-0.3
			c0.4-0.2,0.7,0.1,1,0.3c0.5,0.3,1,0.3,1.6,0.1l0,0c1-0.6,1.4-1.7,0.3-2.5c-0.2-0.1-0.7-0.3-0.7-0.5c-0.1-0.3,0.3-0.3,0.4-0.5
			c0.3-0.6-0.6-1-0.2-1.5c0.7-1.2,2.7-0.2,3.6,0.2c0.6,0.3,1.3,0.7,1.9,0.5C161.1,458.4,161.1,457.8,160.8,457.3z M128.9,441.3
			L128.9,441.3L128.9,441.3L128.9,441.3z M123.8,444.5L123.8,444.5C123.7,444.5,123.7,444.5,123.8,444.5z M123.4,444.4L123.4,444.4
			C123.4,444.3,123.4,444.3,123.4,444.4z"/>
	</g>
</g>
<g>
	<polygon class="st0" points="135.5,465 141.5,465 141.5,452 146.7,456.1 146.7,448.9 138.7,442.6 130.7,448.9 130.7,456.1 
		135.5,452.4 	"/>
</g>
<path class="st3" d="M51.5,204.6c-0.7-0.7-1.7-1.1-2.6-1.1c-1,0-2,0.3-2.7,1.1c-0.2,0.2-0.3,0.4-0.5,0.6c-0.2,0.3-0.4,0.7-0.5,1
	c-0.4,1.3-0.1,2.7,0.9,3.8l7.4,7.4l0.8-0.8l-7.4-7.4c-0.6-0.6-0.8-1.3-0.8-2.1c0-0.4,0.1-0.8,0.3-1.2c0.1-0.2,0.3-0.4,0.4-0.6
	c1.1-1.1,2.8-1.1,3.8,0l8.2,8.2c0.5,0.5,0.6,1.2,0.4,1.9c-0.1,0.2-0.2,0.4-0.4,0.6c-0.1,0.1-0.3,0.2-0.4,0.3c0,0-0.1,0-0.1,0.1
	c-0.6,0.3-1.4,0.1-1.9-0.4l-7.1-7.1c-0.3-0.3-0.3-0.7,0-1s0.7-0.3,1,0l5.5,5.5l0.8-0.8l-5.5-5.5c-0.7-0.7-1.8-0.7-2.5,0
	c-0.2,0.2-0.3,0.4-0.4,0.6c-0.2,0.6-0.1,1.4,0.4,1.9l7.1,7.1c0.3,0.3,0.7,0.5,1.1,0.7c0.8,0.3,1.7,0.2,2.4-0.3l0,0l0,0
	c0.1-0.1,0.3-0.2,0.4-0.3l0,0c1.1-1.1,1.1-2.9,0-3.9L51.5,204.6z"/>
</svg>
